<svg xmlns="http://www.w3.org/2000/svg" width="838" height="975" viewBox="0 0 838 975">
<g>
<path d="M 0.00 0.00 L 838.00 0.00 L 838.00 975.00 L 0.00 975.00 ZM 159.36 851.91 C176.01,856.74 223.52,845.18 250.52,829.73 C262.52,822.87 264.66,821.49 273.50,814.97 C294.21,799.68 309.58,783.14 324.37,760.23 C341.56,733.60 351.76,704.57 354.95,673.21 C355.62,666.68 356.00,620.98 356.00,548.09 L 356.00 433.26 L 389.75 432.77 C428.07,432.21 430.40,431.82 437.69,424.76 C443.97,418.67 446.34,412.34 445.79,403.04 C445.55,398.89 444.71,394.39 443.92,393.04 C441.15,388.25 434.75,382.11 430.65,380.32 C426.39,378.45 422.97,378.33 368.75,378.06 L 356.00 378.00 L 356.00 326.46 C356.00,267.84 356.94,254.78 362.55,235.50 C373.20,198.91 401.06,165.96 434.43,150.49 C457.81,139.65 471.96,137.01 506.75,137.01 L 531.00 137.00 L 531.00 189.00 L 584.77 189.00 L 585.51 156.29 C585.92,138.30 585.95,119.60 585.59,114.72 C584.41,99.15 579.76,91.07 568.58,85.19 L 563.50 82.51 L 529.54 82.17 C491.55,81.79 476.03,82.74 457.28,86.60 C439.84,90.18 425.93,94.89 410.50,102.43 C398.73,108.19 394.82,110.54 380.00,120.74 C366.43,130.09 344.32,153.37 334.19,169.00 C326.18,181.35 315.58,203.89 312.08,216.04 C303.38,246.20 302.05,260.92 302.02,326.75 C302.00,374.86 301.89,378.00 300.25,378.07 C299.29,378.10 283.65,378.21 265.50,378.32 L 232.50 378.50 L 226.85 381.27 C209.92,389.59 206.89,413.19 221.18,425.42 C228.99,432.11 230.71,432.38 267.50,432.67 C285.65,432.82 300.84,432.95 301.25,432.97 C301.66,432.99 302.00,485.37 302.00,549.37 L 302.00 555.19 C302.00,655.91 302.00,669.97 298.90,683.31 C298.34,685.72 297.68,688.12 296.89,691.00 C288.31,722.56 268.24,752.63 243.66,770.75 C232.37,779.07 230.75,780.05 219.44,785.44 C202.61,793.46 189.09,797.19 170.49,798.95 C154.94,800.43 147.27,804.53 142.59,813.88 C137.98,823.08 138.21,830.60 143.39,839.26 C146.65,844.73 153.62,850.25 159.36,851.91 ZM 310.00 852.17 C310.00,852.64 395.16,852.90 499.25,852.76 C682.10,852.51 688.62,852.44 692.00,850.63 C699.13,846.81 703.86,842.04 707.16,835.32 C710.12,829.31 710.42,827.89 710.32,820.10 C710.24,813.15 709.72,810.37 707.62,805.64 C705.26,800.34 697.17,785.96 691.49,777.00 C690.27,775.08 688.17,771.47 686.81,769.00 C685.46,766.53 682.30,761.12 679.79,757.00 C672.81,745.52 658.90,721.98 656.45,717.50 C655.24,715.30 649.62,705.85 643.96,696.50 C633.12,678.60 622.37,660.37 607.99,635.50 C603.22,627.25 596.39,615.55 592.82,609.50 C589.24,603.45 579.46,586.80 571.08,572.50 C562.70,558.20 555.06,545.38 554.10,544.00 C553.15,542.62 551.28,539.47 549.96,537.00 C548.64,534.53 547.05,531.83 546.43,531.00 C545.81,530.17 543.37,525.90 541.01,521.50 C538.66,517.10 535.23,511.14 533.39,508.26 L 530.04 503.02 L 529.77 411.26 L 529.50 319.50 L 527.14 314.27 C522.40,303.79 511.27,297.10 500.68,298.35 C493.91,299.15 485.73,303.30 481.99,307.81 C481.24,308.73 480.57,309.48 480.00,310.29 C475.99,315.91 476.00,324.38 476.00,409.70 C476.00,412.61 476.00,415.62 476.00,418.71 L 476.00 516.06 L 480.16 523.28 C482.45,527.25 486.88,535.00 489.99,540.50 C493.10,546.00 498.73,555.67 502.50,562.00 C520.31,591.90 527.61,604.20 532.47,612.50 C545.64,635.00 564.47,666.91 572.50,680.34 C575.25,684.94 579.53,692.16 582.00,696.39 C584.47,700.61 596.11,720.14 607.86,739.79 L 611.28 745.50 C640.92,795.05 642.09,797.01 641.54,797.95 C641.50,798.03 641.44,798.09 641.39,798.18 C641.11,798.63 578.87,799.00 503.08,799.00 L 365.28 799.00 L 341.50 821.70 C328.42,834.19 315.98,845.96 313.86,847.87 C311.74,849.77 310.00,851.71 310.00,852.17 Z" fill="rgb(8,25,41)"/>
<path d="M 159.36 851.91 C153.62,850.25 146.65,844.73 143.39,839.26 C138.21,830.60 137.98,823.08 142.59,813.88 C147.27,804.53 154.94,800.43 170.49,798.95 C189.09,797.19 202.61,793.46 219.44,785.44 C230.75,780.05 232.37,779.07 243.66,770.75 C268.24,752.63 288.31,722.56 296.89,691.00 C297.68,688.12 298.34,685.72 298.90,683.31 C302.00,669.97 302.00,655.91 302.00,555.19 L 302.00 549.37 C302.00,485.37 301.66,432.99 301.25,432.97 C300.84,432.95 285.65,432.82 267.50,432.67 C230.71,432.38 228.99,432.11 221.18,425.42 C206.89,413.19 209.92,389.59 226.85,381.27 L 232.50 378.50 L 265.50 378.32 C283.65,378.21 299.29,378.10 300.25,378.07 C301.89,378.00 302.00,374.86 302.02,326.75 C302.05,260.92 303.38,246.20 312.08,216.04 C315.58,203.89 326.18,181.35 334.19,169.00 C344.32,153.37 366.43,130.09 380.00,120.74 C394.82,110.54 398.73,108.19 410.50,102.43 C425.93,94.89 439.84,90.18 457.28,86.60 C476.03,82.74 491.55,81.79 529.54,82.17 L 563.50 82.51 L 568.58 85.19 C579.76,91.07 584.41,99.15 585.59,114.72 C585.95,119.60 585.92,138.30 585.51,156.29 L 584.77 189.00 L 531.00 189.00 L 531.00 137.00 L 506.75 137.01 C471.96,137.01 457.81,139.65 434.43,150.49 C401.06,165.96 373.20,198.91 362.55,235.50 C356.94,254.78 356.00,267.84 356.00,326.46 L 356.00 378.00 L 368.75 378.06 C422.97,378.33 426.39,378.45 430.65,380.32 C434.75,382.11 441.15,388.25 443.92,393.04 C444.71,394.39 445.55,398.89 445.79,403.04 C446.34,412.34 443.97,418.67 437.69,424.76 C430.40,431.82 428.07,432.21 389.75,432.77 L 356.00 433.26 L 356.00 548.09 C356.00,620.98 355.62,666.68 354.95,673.21 C351.76,704.57 341.56,733.60 324.37,760.23 C309.58,783.14 294.21,799.68 273.50,814.97 C264.66,821.49 262.52,822.87 250.52,829.73 C223.52,845.18 176.01,856.74 159.36,851.91 ZM 156.36 847.66 C160.02,849.57 161.76,849.78 171.50,849.46 C185.68,849.01 196.59,847.63 201.00,845.75 C202.93,844.93 204.99,844.44 205.60,844.66 C206.20,844.88 209.80,843.96 213.60,842.61 C217.39,841.26 222.41,839.65 224.75,839.04 C227.09,838.42 229.00,837.49 229.00,836.96 C229.00,836.43 229.56,835.99 230.25,835.98 C230.94,835.97 234.88,834.25 239.00,832.15 C258.67,822.13 263.62,819.40 265.12,817.77 C266.01,816.80 267.25,816.00 267.87,816.00 C268.50,816.00 269.99,814.88 271.19,813.50 C272.38,812.12 273.69,811.00 274.09,811.00 C275.67,811.00 283.00,805.57 283.48,804.05 C283.77,803.16 285.35,801.63 287.00,800.66 C288.65,799.68 290.00,798.32 290.00,797.62 C290.00,796.46 294.04,792.34 295.75,791.75 C296.16,791.61 296.40,791.20 296.28,790.84 C295.97,789.91 307.70,778.00 308.94,778.00 C309.50,778.00 310.24,776.91 310.57,775.57 C310.91,774.24 312.04,772.37 313.09,771.42 C314.14,770.47 315.00,768.75 315.01,767.60 C315.02,766.44 316.73,763.70 318.83,761.50 C323.16,756.95 330.48,746.23 331.54,742.88 C331.93,741.64 333.31,738.64 334.61,736.20 C335.91,733.76 336.72,731.36 336.43,730.88 C336.13,730.40 336.33,730.00 336.87,730.00 C337.77,730.00 339.62,725.94 339.07,725.20 C338.94,725.03 339.48,723.91 340.27,722.70 C342.07,719.93 344.07,713.68 348.03,698.54 C350.39,689.53 351.39,682.86 352.11,671.54 C352.63,663.27 353.17,606.68 353.31,545.78 C353.56,435.43 353.57,435.06 355.64,432.28 L 357.72 429.50 L 371.11 429.54 C378.47,429.57 392.71,429.71 402.74,429.85 C419.25,430.09 421.53,429.91 426.82,427.98 C436.90,424.31 444.00,414.65 444.00,404.63 C444.00,399.50 442.03,395.14 436.92,388.96 C430.57,381.28 427.39,380.68 389.47,380.04 C358.71,379.52 357.36,379.42 355.20,377.40 L 352.94 375.30 L 353.40 322.40 C353.74,283.28 354.25,266.24 355.39,256.97 C357.09,243.13 359.43,232.68 361.59,229.29 C362.37,228.07 363.00,225.47 363.00,223.52 C363.00,220.12 365.20,215.83 369.93,210.00 C371.04,208.62 371.97,206.88 371.98,206.13 C371.99,205.38 373.35,203.23 375.00,201.35 C376.65,199.47 378.00,197.13 378.00,196.16 C378.00,193.42 383.27,185.88 387.90,182.00 C390.19,180.07 392.70,177.06 393.46,175.31 C394.29,173.41 396.40,171.30 398.67,170.10 C400.78,169.00 405.39,165.61 408.93,162.57 C413.21,158.88 420.08,154.70 429.53,150.02 C437.32,146.16 444.35,143.00 445.15,143.00 C445.95,143.00 447.03,142.58 447.55,142.06 C448.07,141.54 449.62,140.91 451.00,140.65 C452.38,140.39 454.62,139.76 456.00,139.23 C458.33,138.35 463.66,137.47 481.69,134.99 C485.65,134.44 498.13,134.00 509.44,134.00 C528.20,134.00 530.16,134.16 531.87,135.87 C533.60,137.60 533.74,139.51 533.62,160.94 C533.52,180.74 533.73,184.35 535.05,185.55 C537.47,187.74 579.26,187.60 581.08,185.40 C582.08,184.20 582.47,175.16 582.77,146.64 L 583.17 109.43 L 579.59 101.89 C575.65,93.59 571.34,89.36 563.31,85.92 C558.72,83.95 557.14,83.90 518.53,84.35 C478.57,84.82 466.53,85.57 462.21,87.89 C460.95,88.56 456.02,89.79 451.26,90.62 C446.51,91.46 441.02,92.80 439.06,93.62 C437.11,94.43 433.50,95.55 431.02,96.11 C428.55,96.66 425.85,97.72 425.02,98.46 C424.18,99.21 421.60,100.32 419.27,100.94 C415.22,102.02 398.75,110.92 392.50,115.41 C390.85,116.60 388.27,118.10 386.76,118.76 C382.46,120.62 374.06,127.23 373.42,129.25 C373.10,130.25 371.16,132.13 369.12,133.43 C367.07,134.72 364.06,137.43 362.45,139.45 C360.83,141.46 355.57,146.97 350.78,151.69 C345.98,156.40 341.75,161.22 341.38,162.38 C341.02,163.55 339.00,166.45 336.91,168.83 C334.81,171.22 332.57,174.82 331.92,176.83 C331.28,178.85 330.17,181.18 329.46,182.00 C328.75,182.82 326.37,187.55 324.18,192.50 C321.99,197.45 319.48,202.85 318.61,204.50 C317.73,206.15 317.01,208.30 317.01,209.28 C317.00,210.26 315.88,213.73 314.50,217.00 C313.12,220.27 312.00,224.10 312.00,225.52 C312.00,226.94 311.39,229.31 310.63,230.80 C309.88,232.28 308.70,237.10 308.01,241.50 C307.32,245.90 306.32,251.75 305.78,254.50 C305.24,257.25 304.62,285.38 304.40,317.00 C304.18,348.62 303.76,375.51 303.48,376.73 C303.20,377.97 301.97,379.21 300.73,379.51 C299.51,379.81 284.10,380.19 266.50,380.35 C243.60,380.57 233.65,381.01 231.50,381.92 C229.85,382.61 227.60,383.36 226.50,383.57 C223.88,384.09 219.40,389.35 216.77,395.00 C214.24,400.43 214.13,406.68 216.44,413.63 C219.80,423.72 228.42,428.63 243.56,429.10 C248.48,429.25 253.70,429.70 255.16,430.09 C256.63,430.49 265.81,430.47 275.57,430.05 C292.76,429.32 301.00,430.01 301.00,432.18 C301.00,432.70 301.43,432.85 301.95,432.53 C302.47,432.21 303.17,433.42 303.49,435.22 C303.82,437.02 303.91,491.83 303.69,557.00 C303.27,683.12 303.49,677.23 298.56,694.50 C295.00,706.93 286.14,726.27 278.40,738.50 C273.41,746.38 253.59,766.00 241.53,775.00 C236.74,778.58 232.22,782.06 231.48,782.75 C230.75,783.44 229.06,784.00 227.73,784.00 C226.40,784.00 224.49,784.91 223.48,786.02 C222.47,787.14 219.26,788.74 216.34,789.59 C213.42,790.44 210.78,791.55 210.46,792.07 C210.14,792.58 208.77,793.00 207.40,793.00 C206.04,793.00 203.25,793.85 201.21,794.89 C197.27,796.90 189.88,798.40 176.00,800.01 C171.32,800.56 166.82,801.28 166.00,801.62 C165.18,801.95 163.37,802.38 161.98,802.57 C157.00,803.24 150.02,807.06 148.54,809.92 C147.73,811.48 146.35,813.03 145.47,813.37 C144.59,813.71 144.10,814.35 144.37,814.79 C144.64,815.23 143.97,817.58 142.88,820.02 C141.60,822.88 141.14,825.35 141.57,826.98 C141.94,828.36 142.38,830.50 142.53,831.72 C143.13,836.38 150.07,844.38 156.36,847.66 ZM 310.00 852.17 C310.00,851.71 311.74,849.77 313.86,847.87 C315.98,845.96 328.42,834.19 341.50,821.70 L 365.28 799.00 L 503.08 799.00 C578.87,799.00 641.11,798.63 641.39,798.18 C641.44,798.09 641.50,798.03 641.54,797.95 C642.09,797.01 640.92,795.05 611.28,745.50 L 607.86 739.79 C596.11,720.14 584.47,700.61 582.00,696.39 C579.53,692.16 575.25,684.94 572.50,680.34 C564.47,666.91 545.64,635.00 532.47,612.50 C527.61,604.20 520.31,591.90 502.50,562.00 C498.73,555.67 493.10,546.00 489.99,540.50 C486.88,535.00 482.45,527.25 480.16,523.28 L 476.00 516.06 L 476.00 418.71 C476.00,415.62 476.00,412.61 476.00,409.70 C476.00,324.38 475.99,315.91 480.00,310.29 C480.57,309.48 481.24,308.73 481.99,307.81 C485.73,303.30 493.91,299.15 500.68,298.35 C511.27,297.10 522.40,303.79 527.14,314.27 L 529.50 319.50 L 529.77 411.26 L 530.04 503.02 L 533.39 508.26 C535.23,511.14 538.66,517.10 541.01,521.50 C543.37,525.90 545.81,530.17 546.43,531.00 C547.05,531.83 548.64,534.53 549.96,537.00 C551.28,539.47 553.15,542.62 554.10,544.00 C555.06,545.38 562.70,558.20 571.08,572.50 C579.46,586.80 589.24,603.45 592.82,609.50 C596.39,615.55 603.22,627.25 607.99,635.50 C622.37,660.37 633.12,678.60 643.96,696.50 C649.62,705.85 655.24,715.30 656.45,717.50 C658.90,721.98 672.81,745.52 679.79,757.00 C682.30,761.12 685.46,766.53 686.81,769.00 C688.17,771.47 690.27,775.08 691.49,777.00 C697.17,785.96 705.26,800.34 707.62,805.64 C709.72,810.37 710.24,813.15 710.32,820.10 C710.42,827.89 710.12,829.31 707.16,835.32 C703.86,842.04 699.13,846.81 692.00,850.63 C688.62,852.44 682.10,852.51 499.25,852.76 C395.16,852.90 310.00,852.64 310.00,852.17 ZM 318.34 849.46 C318.89,850.87 336.54,851.00 502.35,850.76 L 685.75 850.50 L 692.13 846.17 C699.04,841.48 703.47,836.12 706.30,829.02 C707.72,825.47 707.98,822.99 707.49,817.50 C706.88,810.67 702.96,800.00 701.05,800.00 C700.56,800.00 699.89,798.76 699.55,797.25 C699.22,795.73 697.05,791.60 694.72,788.07 C692.40,784.54 689.71,780.15 688.74,778.32 C687.78,776.50 686.59,775.00 686.11,775.00 C685.63,775.00 684.70,773.54 684.03,771.75 C682.18,766.79 678.74,759.56 677.97,759.00 C677.59,758.72 676.56,757.10 675.69,755.39 C674.81,753.69 672.28,749.55 670.05,746.19 C667.82,742.84 666.00,739.73 666.00,739.29 C666.00,738.84 664.52,736.23 662.72,733.49 C660.92,730.74 658.56,726.71 657.47,724.53 C656.39,722.34 654.71,719.67 653.75,718.59 C652.79,717.51 652.00,716.10 652.00,715.45 C652.00,714.81 650.88,712.62 649.50,710.60 C648.12,708.57 647.00,706.33 647.00,705.63 C647.00,704.93 645.88,703.29 644.50,702.00 C643.12,700.71 642.00,699.12 642.00,698.47 C642.00,697.83 640.65,695.88 639.00,694.16 C637.35,692.43 635.98,690.23 635.96,689.26 C635.94,688.29 634.39,685.03 632.52,682.00 C630.65,678.97 627.54,673.76 625.60,670.40 C623.66,667.05 621.38,663.73 620.54,663.03 C619.69,662.33 619.00,661.20 619.00,660.51 C619.00,659.83 618.14,658.18 617.09,656.85 C615.46,654.77 613.41,651.30 610.11,645.00 C609.68,644.17 608.59,642.15 607.69,640.50 C606.79,638.85 605.18,635.64 604.11,633.36 C603.04,631.08 601.67,628.92 601.07,628.54 C600.47,628.17 599.06,626.08 597.94,623.89 C596.83,621.71 595.09,619.09 594.08,618.08 C593.07,617.07 590.56,612.79 588.50,608.56 C586.44,604.34 581.98,596.71 578.60,591.61 C575.21,586.50 570.93,579.22 569.08,575.42 C567.23,571.61 565.02,567.69 564.16,566.70 C563.30,565.71 562.51,564.28 562.40,563.52 C562.29,562.75 560.82,560.41 559.14,558.31 C557.46,556.22 555.16,552.38 554.02,549.79 C552.88,547.20 551.47,544.79 550.89,544.43 C550.31,544.07 548.95,541.92 547.87,539.64 C544.63,532.80 542.83,529.61 541.02,527.50 C540.08,526.40 538.34,523.47 537.17,521.00 C536.01,518.53 533.38,514.03 531.34,511.00 L 527.64 505.50 L 527.47 415.00 C527.31,324.66 527.31,324.48 525.16,319.62 C523.97,316.94 523.00,314.11 523.00,313.33 C523.00,308.95 509.24,300.00 502.50,300.00 C498.88,300.00 489.20,303.88 487.76,305.91 C487.07,306.88 485.49,308.22 484.25,308.88 C483.01,309.53 482.00,310.97 482.00,312.07 C482.00,313.17 481.22,315.25 480.28,316.70 C478.76,319.02 478.49,323.61 477.96,355.91 C477.12,408.30 477.87,513.92 479.11,517.11 C479.67,518.54 481.45,520.69 483.06,521.89 C485.07,523.37 486.00,524.93 486.00,526.79 C486.00,528.30 487.58,531.87 489.50,534.72 C491.42,537.58 493.00,540.38 493.00,540.95 C493.00,541.52 495.00,544.90 497.45,548.48 C499.89,552.05 502.84,556.89 503.99,559.24 C507.51,566.41 512.40,574.68 514.45,576.94 C515.52,578.12 516.53,580.02 516.71,581.15 C516.88,582.28 517.92,584.35 519.01,585.74 C520.10,587.13 521.00,588.94 521.00,589.75 C521.00,590.57 522.24,592.73 523.75,594.55 C530.15,602.26 533.37,606.96 533.69,609.05 C533.88,610.27 535.37,612.79 537.00,614.65 C538.63,616.51 540.27,619.27 540.64,620.77 C541.00,622.27 542.39,624.80 543.71,626.40 C545.03,627.99 547.70,632.49 549.63,636.39 C551.56,640.30 553.72,644.17 554.44,645.00 C555.75,646.51 559.32,652.63 563.79,661.00 C568.76,670.31 569.66,671.75 573.39,676.30 C575.49,678.86 578.21,683.43 579.44,686.46 C580.67,689.49 582.87,693.39 584.32,695.15 C585.77,696.90 587.47,699.94 588.11,701.91 C588.74,703.89 590.68,707.30 592.42,709.50 C594.16,711.70 597.14,716.65 599.04,720.50 C600.93,724.35 603.50,728.77 604.74,730.33 C605.98,731.88 607.00,733.56 607.00,734.06 C607.00,734.55 608.80,737.33 611.00,740.23 C613.20,743.13 616.62,748.65 618.59,752.50 C620.57,756.35 622.86,760.25 623.68,761.17 C624.50,762.09 626.41,765.46 627.92,768.67 C629.44,771.88 631.49,775.17 632.48,775.99 C633.47,776.80 635.10,779.39 636.10,781.74 C637.11,784.09 638.79,786.93 639.83,788.05 C642.85,791.29 645.37,796.60 644.71,798.32 C644.38,799.18 642.39,800.36 640.30,800.92 C637.77,801.60 591.51,801.87 502.50,801.72 L 368.50 801.50 L 363.75 804.34 C361.14,805.91 358.27,808.38 357.38,809.84 C356.48,811.31 352.12,815.65 347.70,819.50 C336.92,828.86 333.00,832.73 333.00,833.97 C333.00,834.53 332.58,835.00 332.07,835.00 C331.56,835.00 328.13,837.90 324.45,841.44 C319.89,845.82 317.94,848.39 318.34,849.46 Z" fill="rgb(192,162,90)"/>
<path d="M 318.34 849.46 C317.94,848.39 319.89,845.82 324.45,841.44 C328.13,837.90 331.56,835.00 332.07,835.00 C332.58,835.00 333.00,834.53 333.00,833.97 C333.00,832.73 336.92,828.86 347.70,819.50 C352.12,815.65 356.48,811.31 357.38,809.84 C358.27,808.38 361.14,805.91 363.75,804.34 L 368.50 801.50 L 502.50 801.72 C591.51,801.87 637.77,801.60 640.30,800.92 C642.39,800.36 644.38,799.18 644.71,798.32 C645.37,796.60 642.85,791.29 639.83,788.05 C638.79,786.93 637.11,784.09 636.10,781.74 C635.10,779.39 633.47,776.80 632.48,775.99 C631.49,775.17 629.44,771.88 627.92,768.67 C626.41,765.46 624.50,762.09 623.68,761.17 C622.86,760.25 620.57,756.35 618.59,752.50 C616.62,748.65 613.20,743.13 611.00,740.23 C608.80,737.33 607.00,734.55 607.00,734.06 C607.00,733.56 605.98,731.88 604.74,730.33 C603.50,728.77 600.93,724.35 599.04,720.50 C597.14,716.65 594.16,711.70 592.42,709.50 C590.68,707.30 588.74,703.89 588.11,701.91 C587.47,699.94 585.77,696.90 584.32,695.15 C582.87,693.39 580.67,689.49 579.44,686.46 C578.21,683.43 575.49,678.86 573.39,676.30 C569.66,671.75 568.76,670.31 563.79,661.00 C559.32,652.63 555.75,646.51 554.44,645.00 C553.72,644.17 551.56,640.30 549.63,636.39 C547.70,632.49 545.03,627.99 543.71,626.40 C542.39,624.80 541.00,622.27 540.64,620.77 C540.27,619.27 538.63,616.51 537.00,614.65 C535.37,612.79 533.88,610.27 533.69,609.05 C533.37,606.96 530.15,602.26 523.75,594.55 C522.24,592.73 521.00,590.57 521.00,589.75 C521.00,588.94 520.10,587.13 519.01,585.74 C517.92,584.35 516.88,582.28 516.71,581.15 C516.53,580.02 515.52,578.12 514.45,576.94 C512.40,574.68 507.51,566.41 503.99,559.24 C502.84,556.89 499.89,552.05 497.45,548.48 C495.00,544.90 493.00,541.52 493.00,540.95 C493.00,540.38 491.42,537.58 489.50,534.72 C487.58,531.87 486.00,528.30 486.00,526.79 C486.00,524.93 485.07,523.37 483.06,521.89 C481.45,520.69 479.67,518.54 479.11,517.11 C477.87,513.92 477.12,408.30 477.96,355.91 C478.49,323.61 478.76,319.02 480.28,316.70 C481.22,315.25 482.00,313.17 482.00,312.07 C482.00,310.97 483.01,309.53 484.25,308.88 C485.49,308.22 487.07,306.88 487.76,305.91 C489.20,303.88 498.88,300.00 502.50,300.00 C509.24,300.00 523.00,308.95 523.00,313.33 C523.00,314.11 523.97,316.94 525.16,319.62 C527.31,324.48 527.31,324.66 527.47,415.00 L 527.64 505.50 L 531.34 511.00 C533.38,514.03 536.01,518.53 537.17,521.00 C538.34,523.47 540.08,526.40 541.02,527.50 C542.83,529.61 544.63,532.80 547.87,539.64 C548.95,541.92 550.31,544.07 550.89,544.43 C551.47,544.79 552.88,547.20 554.02,549.79 C555.16,552.38 557.46,556.22 559.14,558.31 C560.82,560.41 562.29,562.75 562.40,563.52 C562.51,564.28 563.30,565.71 564.16,566.70 C565.02,567.69 567.23,571.61 569.08,575.42 C570.93,579.22 575.21,586.50 578.60,591.61 C581.98,596.71 586.44,604.34 588.50,608.56 C590.56,612.79 593.07,617.07 594.08,618.08 C595.09,619.09 596.83,621.71 597.94,623.89 C599.06,626.08 600.47,628.17 601.07,628.54 C601.67,628.92 603.04,631.08 604.11,633.36 C605.18,635.64 606.79,638.85 607.69,640.50 C608.59,642.15 609.68,644.17 610.11,645.00 C613.41,651.30 615.46,654.77 617.09,656.85 C618.14,658.18 619.00,659.83 619.00,660.51 C619.00,661.20 619.69,662.33 620.54,663.03 C621.38,663.73 623.66,667.05 625.60,670.40 C627.54,673.76 630.65,678.97 632.52,682.00 C634.39,685.03 635.94,688.29 635.96,689.26 C635.98,690.23 637.35,692.43 639.00,694.16 C640.65,695.88 642.00,697.83 642.00,698.47 C642.00,699.12 643.12,700.71 644.50,702.00 C645.88,703.29 647.00,704.93 647.00,705.63 C647.00,706.33 648.12,708.57 649.50,710.60 C650.88,712.62 652.00,714.81 652.00,715.45 C652.00,716.10 652.79,717.51 653.75,718.59 C654.71,719.67 656.39,722.34 657.47,724.53 C658.56,726.71 660.92,730.74 662.72,733.49 C664.52,736.23 666.00,738.84 666.00,739.29 C666.00,739.73 667.82,742.84 670.05,746.19 C672.28,749.55 674.81,753.69 675.69,755.39 C676.56,757.10 677.59,758.72 677.97,759.00 C678.74,759.56 682.18,766.79 684.03,771.75 C684.70,773.54 685.63,775.00 686.11,775.00 C686.59,775.00 687.78,776.50 688.74,778.32 C689.71,780.15 692.40,784.54 694.72,788.07 C697.05,791.60 699.22,795.73 699.55,797.25 C699.89,798.76 700.56,800.00 701.05,800.00 C702.96,800.00 706.88,810.67 707.49,817.50 C707.98,822.99 707.72,825.47 706.30,829.02 C703.47,836.12 699.04,841.48 692.13,846.17 L 685.75 850.50 L 502.35 850.76 C336.54,851.00 318.89,850.87 318.34,849.46 ZM 156.36 847.66 C150.07,844.38 143.13,836.38 142.53,831.72 C142.38,830.50 141.94,828.36 141.57,826.98 C141.14,825.35 141.60,822.88 142.88,820.02 C143.97,817.58 144.64,815.23 144.37,814.79 C144.10,814.35 144.59,813.71 145.47,813.37 C146.35,813.03 147.73,811.48 148.54,809.92 C150.02,807.06 157.00,803.24 161.98,802.57 C163.37,802.38 165.18,801.95 166.00,801.62 C166.82,801.28 171.32,800.56 176.00,800.01 C189.88,798.40 197.27,796.90 201.21,794.89 C203.25,793.85 206.04,793.00 207.40,793.00 C208.77,793.00 210.14,792.58 210.46,792.07 C210.78,791.55 213.42,790.44 216.34,789.59 C219.26,788.74 222.47,787.14 223.48,786.02 C224.49,784.91 226.40,784.00 227.73,784.00 C229.06,784.00 230.75,783.44 231.48,782.75 C232.22,782.06 236.74,778.58 241.53,775.00 C253.59,766.00 273.41,746.38 278.40,738.50 C286.14,726.27 295.00,706.93 298.56,694.50 C303.49,677.23 303.27,683.12 303.69,557.00 C303.91,491.83 303.82,437.02 303.49,435.22 C303.17,433.42 302.47,432.21 301.95,432.53 C301.43,432.85 301.00,432.70 301.00,432.18 C301.00,430.01 292.76,429.32 275.57,430.05 C265.81,430.47 256.63,430.49 255.16,430.09 C253.70,429.70 248.48,429.25 243.56,429.10 C228.42,428.63 219.80,423.72 216.44,413.63 C214.13,406.68 214.24,400.43 216.77,395.00 C219.40,389.35 223.88,384.09 226.50,383.57 C227.60,383.36 229.85,382.61 231.50,381.92 C233.65,381.01 243.60,380.57 266.50,380.35 C284.10,380.19 299.51,379.81 300.73,379.51 C301.97,379.21 303.20,377.97 303.48,376.73 C303.76,375.51 304.18,348.62 304.40,317.00 C304.62,285.38 305.24,257.25 305.78,254.50 C306.32,251.75 307.32,245.90 308.01,241.50 C308.70,237.10 309.88,232.28 310.63,230.80 C311.39,229.31 312.00,226.94 312.00,225.52 C312.00,224.10 313.12,220.27 314.50,217.00 C315.88,213.73 317.00,210.26 317.01,209.28 C317.01,208.30 317.73,206.15 318.61,204.50 C319.48,202.85 321.99,197.45 324.18,192.50 C326.37,187.55 328.75,182.82 329.46,182.00 C330.17,181.18 331.28,178.85 331.92,176.83 C332.57,174.82 334.81,171.22 336.91,168.83 C339.00,166.45 341.02,163.55 341.38,162.38 C341.75,161.22 345.98,156.40 350.78,151.69 C355.57,146.97 360.83,141.46 362.45,139.45 C364.06,137.43 367.07,134.72 369.12,133.43 C371.16,132.13 373.10,130.25 373.42,129.25 C374.06,127.23 382.46,120.62 386.76,118.76 C388.27,118.10 390.85,116.60 392.50,115.41 C398.75,110.92 415.22,102.02 419.27,100.94 C421.60,100.32 424.18,99.21 425.02,98.46 C425.85,97.72 428.55,96.66 431.02,96.11 C433.50,95.55 437.11,94.43 439.06,93.62 C441.02,92.80 446.51,91.46 451.26,90.62 C456.02,89.79 460.95,88.56 462.21,87.89 C466.53,85.57 478.57,84.82 518.53,84.35 C557.14,83.90 558.72,83.95 563.31,85.92 C571.34,89.36 575.65,93.59 579.59,101.89 L 583.17 109.43 L 582.77 146.64 C582.47,175.16 582.08,184.20 581.08,185.40 C579.26,187.60 537.47,187.74 535.05,185.55 C533.73,184.35 533.52,180.74 533.62,160.94 C533.74,139.51 533.60,137.60 531.87,135.87 C530.16,134.16 528.20,134.00 509.44,134.00 C498.13,134.00 485.65,134.44 481.69,134.99 C463.66,137.47 458.33,138.35 456.00,139.23 C454.62,139.76 452.38,140.39 451.00,140.65 C449.62,140.91 448.07,141.54 447.55,142.06 C447.03,142.58 445.95,143.00 445.15,143.00 C444.35,143.00 437.32,146.16 429.53,150.02 C420.08,154.70 413.21,158.88 408.93,162.57 C405.39,165.61 400.78,169.00 398.67,170.10 C396.40,171.30 394.29,173.41 393.46,175.31 C392.70,177.06 390.19,180.07 387.90,182.00 C383.27,185.88 378.00,193.42 378.00,196.16 C378.00,197.13 376.65,199.47 375.00,201.35 C373.35,203.23 371.99,205.38 371.98,206.13 C371.97,206.88 371.04,208.62 369.93,210.00 C365.20,215.83 363.00,220.12 363.00,223.52 C363.00,225.47 362.37,228.07 361.59,229.29 C359.43,232.68 357.09,243.13 355.39,256.97 C354.25,266.24 353.74,283.28 353.40,322.40 L 352.94 375.30 L 355.20 377.40 C357.36,379.42 358.71,379.52 389.47,380.04 C427.39,380.68 430.57,381.28 436.92,388.96 C442.03,395.14 444.00,399.50 444.00,404.63 C444.00,414.65 436.90,424.31 426.82,427.98 C421.53,429.91 419.25,430.09 402.74,429.85 C392.71,429.71 378.47,429.57 371.11,429.54 L 357.72 429.50 L 355.64 432.28 C353.57,435.06 353.56,435.43 353.31,545.78 C353.17,606.68 352.63,663.27 352.11,671.54 C351.39,682.86 350.39,689.53 348.03,698.54 C344.07,713.68 342.07,719.93 340.27,722.70 C339.48,723.91 338.94,725.03 339.07,725.20 C339.62,725.94 337.77,730.00 336.87,730.00 C336.33,730.00 336.13,730.40 336.43,730.88 C336.72,731.36 335.91,733.76 334.61,736.20 C333.31,738.64 331.93,741.64 331.54,742.88 C330.48,746.23 323.16,756.95 318.83,761.50 C316.73,763.70 315.02,766.44 315.01,767.60 C315.00,768.75 314.14,770.47 313.09,771.42 C312.04,772.37 310.91,774.24 310.57,775.57 C310.24,776.91 309.50,778.00 308.94,778.00 C307.70,778.00 295.97,789.91 296.28,790.84 C296.40,791.20 296.16,791.61 295.75,791.75 C294.04,792.34 290.00,796.46 290.00,797.62 C290.00,798.32 288.65,799.68 287.00,800.66 C285.35,801.63 283.77,803.16 283.48,804.05 C283.00,805.57 275.67,811.00 274.09,811.00 C273.69,811.00 272.38,812.12 271.19,813.50 C269.99,814.88 268.50,816.00 267.87,816.00 C267.25,816.00 266.01,816.80 265.12,817.77 C263.62,819.40 258.67,822.13 239.00,832.15 C234.88,834.25 230.94,835.97 230.25,835.98 C229.56,835.99 229.00,836.43 229.00,836.96 C229.00,837.49 227.09,838.42 224.75,839.04 C222.41,839.65 217.39,841.26 213.60,842.61 C209.80,843.96 206.20,844.88 205.60,844.66 C204.99,844.44 202.93,844.93 201.00,845.75 C196.59,847.63 185.68,849.01 171.50,849.46 C161.76,849.78 160.02,849.57 156.36,847.66 Z" fill="rgb(206,163,68)"/>
</g>
</svg>